<svg width="330" height="50" viewBox="0 0 330 50" fill="none" xmlns="http://www.w3.org/2000/svg">
<path d="M80 49.5597L80 0L86.1574 0L86.1574 43.8985L108.39 43.8985L108.39 49.5597L80 49.5597Z" fill="#333332"/>
<path d="M148.604 44.2549L148.604 49.5666L145.417 49.5666C140.602 49.5666 138.973 47.5118 138.903 43.9753C136.639 47.2322 133.025 49.9929 126.798 49.9929C118.865 49.9929 113.484 46.0301 113.484 39.4464C113.484 32.2266 118.509 28.1869 128 28.1869L138.624 28.1869L138.624 25.7058C138.624 21.0301 135.297 18.1995 129.629 18.1995C124.534 18.1995 121.13 20.6038 120.424 24.287L114.616 24.287C115.469 17.2071 121.2 13.0276 129.908 13.0276C139.113 13.0276 144.425 17.6334 144.425 26.0553L144.425 41.8436C144.425 43.7586 145.131 44.2479 146.759 44.2479H148.597L148.604 44.2549ZM138.624 33.0653L127.434 33.0653C122.262 33.0653 119.362 34.9734 119.362 39.0829C119.362 42.6264 122.409 45.0307 127.224 45.0307C134.444 45.0307 138.624 40.8512 138.624 34.8336L138.624 33.0653Z" fill="#333332"/>
<path d="M170.62 49.5595C163.68 49.5595 161.206 46.5123 161.206 40.1452L161.206 18.7656L151.645 18.7656L151.645 13.4539L161.206 13.4539L161.206 3.32666L167.014 3.32666L167.014 13.4539L179.685 13.4539L179.685 18.7656L167.014 18.7656L167.014 40.0753C167.014 43.1226 168.076 44.2548 171.193 44.2548L180.258 44.2548L180.258 49.5665L170.627 49.5665L170.62 49.5595Z" fill="#333332"/>
<path d="M192.147 32.7788L192.147 33.1352C192.357 40.0055 196.676 44.821 203.547 44.821C208.642 44.821 212.611 42.1302 213.814 37.4545L219.691 37.4545C218.273 44.6742 212.325 49.9859 203.973 49.9859C193.14 49.9859 186.06 42.5495 186.06 31.5068C186.06 20.464 193 13.0276 203.197 13.0276C213.394 13.0276 220.048 19.4715 220.334 30.1649C220.334 30.731 220.265 31.9331 220.195 32.7858L192.154 32.7858L192.147 32.7788ZM192.504 27.8235L214.1 27.8235C213.534 21.5892 209.285 18.1226 203.267 18.1226C197.955 18.1226 193.07 21.9457 192.504 27.8235Z" fill="#333332"/>
<path d="M256.719 13.4539L256.719 19.115L252.044 19.115C243.615 19.115 241.141 25.559 241.141 31.297L241.141 44.2548L251.687 44.2548L251.687 49.5665L227.26 49.5665L227.26 44.2548L235.333 44.2548L235.333 18.7656L227.26 18.7656L227.26 13.4539L240.854 13.4539L241.064 19.5414C242.692 16.7108 245.949 13.4539 252.82 13.4539L256.712 13.4539H256.719Z" fill="#333332"/>
<path d="M297.144 44.2549L297.144 49.5666L293.957 49.5666C289.142 49.5666 287.513 47.5118 287.444 43.9753C285.179 47.2322 281.566 49.9929 275.338 49.9929C267.406 49.9929 262.024 46.0301 262.024 39.4464C262.024 32.2266 267.049 28.1869 276.541 28.1869L287.164 28.1869L287.164 25.7058C287.164 21.0301 283.837 18.1995 278.169 18.1995C273.074 18.1995 269.67 20.6038 268.964 24.287L263.156 24.287C264.009 17.2071 269.74 13.0276 278.449 13.0276C287.653 13.0276 292.965 17.6334 292.965 26.0553L292.965 41.8436C292.965 43.7586 293.671 44.2479 295.299 44.2479H297.137L297.144 44.2549ZM287.164 33.0653L275.974 33.0653C270.803 33.0653 267.902 34.9734 267.902 39.0829C267.902 42.6264 270.949 45.0307 275.765 45.0307C282.985 45.0307 287.164 40.8512 287.164 34.8336L287.164 33.0653Z" fill="#333332"/>
<path d="M330 44.255L330 49.5667L302.316 49.5667L302.316 44.255L313.219 44.255L313.219 5.31171L302.316 5.31171L302.316 0L319.027 0L319.027 44.255L330 44.255Z" fill="#333332"/>
<path d="M43.0079 18.1216L34.1619 9.06078L49.3543 9.22296V0H18.6502V31.1028L27.7323 31.1874L27.5726 15.6748L36.3352 24.7356C39.5501 28.0003 40.6749 30.6163 40.6749 34.9387V40.5302H9.32509V0H0V50H50V35.1008C50 28.5714 48.6321 23.9952 43.0079 18.1216Z" fill="#333332"/>
</svg>
